<?xml version="1.0" standalone="no"?>
<!DOCTYPE svg PUBLIC "-//W3C//DTD SVG 20010904//EN"
 "http://www.w3.org/TR/2001/REC-SVG-20010904/DTD/svg10.dtd">
<svg version="1.0" xmlns="http://www.w3.org/2000/svg"
 width="1080.000000pt" height="1080.000000pt" viewBox="0 0 1080.000000 1080.000000"
 preserveAspectRatio="xMidYMid meet">
<metadata>
Created by potrace 1.14, written by Peter Selinger 2001-2017
</metadata>
<g transform="translate(0.000000,1080.000000) scale(0.100000,-0.100000)"
fill="#000000" stroke="none">
<path d="M5139 10626 c-2 -2 -49 -6 -104 -10 -189 -12 -278 -22 -400 -41 -77
-13 -93 -15 -130 -21 -22 -3 -80 -14 -130 -24 -49 -11 -101 -21 -115 -24 -14
-2 -81 -18 -150 -36 -551 -139 -1106 -383 -1569 -689 -46 -31 -94 -63 -107
-71 -65 -43 -316 -230 -334 -250 -3 -3 -45 -39 -94 -80 -98 -82 -127 -109
-261 -239 -606 -590 -1056 -1313 -1318 -2116 -52 -160 -132 -457 -151 -564 -2
-14 -9 -48 -14 -76 -6 -27 -13 -68 -16 -90 -4 -23 -8 -50 -10 -60 -6 -33 -25
-166 -32 -235 -4 -36 -8 -74 -10 -85 -19 -167 -26 -691 -11 -875 16 -206 24
-283 37 -360 5 -30 12 -73 15 -95 16 -112 48 -271 91 -447 2 -10 6 -27 8 -37
32 -145 173 -565 240 -714 8 -18 40 -90 72 -162 32 -71 61 -135 66 -141 5 -6
22 -40 40 -75 36 -74 133 -246 191 -339 54 -87 170 -264 177 -270 3 -3 28 -36
55 -75 57 -81 241 -311 295 -370 21 -22 59 -64 86 -94 566 -621 1328 -1118
2149 -1401 219 -75 527 -157 725 -191 385 -68 574 -84 960 -84 269 0 470 10
620 30 25 4 61 9 80 11 69 9 106 15 167 24 181 29 453 93 638 150 55 17 108
32 117 35 57 13 367 132 503 193 92 41 342 166 415 207 36 21 85 49 110 63 25
14 64 38 87 53 23 16 44 29 46 29 2 0 42 25 88 56 284 188 571 420 794 641
105 104 239 246 285 303 25 30 50 59 56 65 6 5 48 57 94 115 45 58 87 112 93
120 177 225 407 612 562 945 108 231 253 635 300 833 3 10 9 35 15 57 17 70
59 259 65 295 3 19 10 58 15 85 17 89 20 109 26 160 3 28 7 52 9 55 2 3 6 42
10 85 4 44 8 91 11 105 25 153 25 801 0 1010 -2 14 -7 56 -11 94 -4 38 -8 79
-10 90 -2 12 -6 41 -9 66 -4 25 -8 57 -11 73 -14 79 -26 144 -29 162 -46 234
-103 448 -176 665 -50 151 -84 240 -168 445 -35 86 -183 376 -250 493 -229
396 -503 758 -807 1064 -189 191 -327 314 -565 501 -63 50 -346 247 -355 247
-2 0 -31 18 -64 40 -33 22 -65 40 -71 40 -5 0 -10 5 -10 10 0 6 -4 10 -9 10
-5 0 -49 23 -98 51 -126 73 -426 218 -578 279 -71 29 -139 56 -150 61 -126 51
-454 151 -605 184 -116 26 -252 55 -280 59 -19 3 -45 8 -57 10 -11 3 -43 8
-70 12 -26 3 -57 8 -68 10 -19 4 -52 8 -140 19 -22 3 -71 8 -110 11 -38 3 -86
8 -105 10 -43 6 -645 15 -651 10z"/>
</g>
</svg>
